<svg viewBox="0 0 200 200" xmlns="http://www.w3.org/2000/svg">
  <path fill="#BAE6FF" d="M26.7,-44C36.5,-40.6,47.6,-37.2,52.3,-29.9C56.9,-22.6,55.1,-11.3,56.4,0.7C57.7,12.8,62.1,25.6,59.1,35.7C56.1,45.9,45.6,53.4,34.5,63.2C23.4,73.1,11.7,85.3,-0.8,86.7C-13.4,88.2,-26.7,78.8,-39.2,69.7C-51.6,60.7,-63.1,51.9,-67.7,40.3C-72.4,28.7,-70.2,14.3,-71.8,-0.9C-73.4,-16.2,-78.7,-32.4,-75.5,-46.4C-72.3,-60.4,-60.4,-72.2,-46.4,-73.1C-32.3,-74.1,-16.2,-64.2,-3.9,-57.5C8.4,-50.8,16.9,-47.4,26.7,-44Z" transform="translate(100 100)" />
</svg>