<svg viewBox="0 0 200 200" xmlns="http://www.w3.org/2000/svg">
  <path fill="#FF0066" d="M45.8,-74.9C59.7,-71.4,71.3,-59.7,74.8,-45.8C78.3,-31.9,73.7,-16,69.4,-2.5C65.1,11,61.2,22.1,57,34.7C52.8,47.3,48.3,61.5,38.7,67.2C29.1,72.8,14.6,70,-1,71.8C-16.7,73.6,-33.3,80.1,-46,76.2C-58.8,72.4,-67.6,58.2,-73.3,43.8C-79,29.4,-81.7,14.7,-80,1C-78.3,-12.7,-72.2,-25.4,-65.2,-37.6C-58.1,-49.8,-50.1,-61.4,-39.1,-66.5C-28.1,-71.6,-14,-70.2,1,-71.9C16,-73.6,32,-78.4,45.8,-74.9Z" transform="translate(100 100)" />
</svg>